HIERARCHY
ROOT Hips
{
	OFFSET 0.000000 0.000000 0.000000 
	CHANNELS 6 Xposition Yposition Zposition Xrotation Yrotation Zrotation
	JOINT Spine
	{
		OFFSET 0.000000 1.722820 2.584230 
		CHANNELS 3 Xrotation Yrotation Zrotation
		JOINT Spine1
		{
			OFFSET 0.000000 0.598330 3.393290 
			CHANNELS 3 Xrotation Yrotation Zrotation
			JOINT Spine2
			{
				OFFSET 0.000000 0.300310 3.432520 
				CHANNELS 3 Xrotation Yrotation Zrotation
				JOINT Spine3
				{
					OFFSET 0.000000 0.000000 3.445640 
					CHANNELS 3 Xrotation Yrotation Zrotation
					JOINT Neck
					{
						OFFSET 0.000000 -1.292100 9.044790 
						CHANNELS 3 Xrotation Yrotation Zrotation
						JOINT Head
						{
							OFFSET 0.000000 -0.822700 4.665770 
							CHANNELS 3 Xrotation Yrotation Zrotation
							End Site
							{
								OFFSET 0.000000 0.000010 5.577620 
							}
						}
					}
					JOINT RightShoulder
					{
						OFFSET -1.175120 -1.958530 6.345670 
						CHANNELS 3 Xrotation Yrotation Zrotation
						JOINT RightArm
						{
							OFFSET -5.836450 0.000000 0.000000 
							CHANNELS 3 Xrotation Yrotation Zrotation
							JOINT RightForeArm
							{
								OFFSET -10.886420 0.000000 0.000000 
								CHANNELS 3 Xrotation Yrotation Zrotation
								JOINT RightHand
								{
									OFFSET -10.194950 0.000000 0.000000 
									CHANNELS 3 Xrotation Yrotation Zrotation
									JOINT RightHandEnd
									{
										OFFSET -2.735920 0.000000 0.000000 
										CHANNELS 3 Xrotation Yrotation Zrotation
										End Site
										{
											OFFSET -2.735920 0.000000 0.000000 
										}
									}
									JOINT RightHandThumb1
									{
										OFFSET -1.094370 -1.823950 -0.729580 
										CHANNELS 3 Yrotation Xrotation Zrotation
										End Site
										{
											OFFSET -2.642700 -0.708110 0.000000 
										}
									}
								}
							}
						}
					}
					JOINT LeftShoulder
					{
						OFFSET 1.175120 -1.958530 6.345670 
						CHANNELS 3 Xrotation Yrotation Zrotation
						JOINT LeftArm
						{
							OFFSET 5.836450 0.000000 0.000000 
							CHANNELS 3 Xrotation Yrotation Zrotation
							JOINT LeftForeArm
							{
								OFFSET 10.886420 0.000000 0.000000 
								CHANNELS 3 Xrotation Yrotation Zrotation
								JOINT LeftHand
								{
									OFFSET 10.194950 0.000000 0.000000 
									CHANNELS 3 Xrotation Yrotation Zrotation
									JOINT LeftHandEnd
									{
										OFFSET 2.735920 0.000000 0.000000 
										CHANNELS 3 Xrotation Yrotation Zrotation
										End Site
										{
											OFFSET 2.735920 0.000000 0.000000 
										}
									}
									JOINT LeftHandThumb1
									{
										OFFSET 1.094370 -1.823950 -0.729580 
										CHANNELS 3 Yrotation Xrotation Zrotation
										End Site
										{
											OFFSET 2.642700 -0.708110 0.000000 
										}
									}
								}
							}
						}
					}
				}
			}
		}
	}
	JOINT RightUpLeg
	{
		OFFSET -3.486200 0.000000 -1.018440 
		CHANNELS 3 Xrotation Yrotation Zrotation
		JOINT RightLeg
		{
			OFFSET 0.000010 0.000000 -16.688210 
			CHANNELS 3 Xrotation Yrotation Zrotation
			JOINT RightFoot
			{
				OFFSET 0.000010 0.000000 -16.775360 
				CHANNELS 3 Xrotation Yrotation Zrotation
				JOINT RightToeBase
				{
					OFFSET 0.000000 -4.945160 -1.799890 
					CHANNELS 3 Xrotation Yrotation Zrotation
					End Site
					{
						OFFSET 0.000000 -2.820300 -0.000000 
					}
				}
			}
		}
	}
	JOINT LeftUpLeg
	{
		OFFSET 3.486200 0.000000 -1.018440 
		CHANNELS 3 Xrotation Yrotation Zrotation
		JOINT LeftLeg
		{
			OFFSET 0.000010 0.000000 -16.688210 
			CHANNELS 3 Xrotation Yrotation Zrotation
			JOINT LeftFoot
			{
				OFFSET 0.000010 0.000000 -16.775360 
				CHANNELS 3 Xrotation Yrotation Zrotation
				JOINT LeftToeBase
				{
					OFFSET 0.000000 -4.945160 -1.799890 
					CHANNELS 3 Xrotation Yrotation Zrotation
					End Site
					{
						OFFSET 0.000000 -2.820300 -0.000000 
					}
				}
			}
		}
	}
}
MOTION
Frames: 11
Frame Time: 0.008333
39.289299 36.664799 -4.370500 -83.861504 0.358300 -1.707900 2.299500 2.186300 0.251500 2.212700 0.046000 0.055900 2.903100 1.195000 0.097800 -1.435900 0.155500 -0.002100 -9.835500 -4.590100 -2.130900 -9.760400 5.651200 0.859200 5.144500 -2.901800 1.055100 6.665200 -55.835098 9.265400 -0.000000 0.000100 84.062798 23.574200 -4.498300 -14.669000 0.000000 -0.000000 0.000000 -0.000000 0.000000 0.000000 1.032200 8.949800 -1.970700 6.251600 57.664700 -0.843400 -0.000100 -0.000100 -93.750099 4.499000 -2.997900 14.328300 -0.000000 0.000000 -0.000000 0.000000 0.000000 -0.000000 -12.580800 9.050400 -15.699400 19.119101 0.000000 0.000000 -7.161600 -7.079100 -1.217600 -1.443100 0.000000 -0.000000 -8.588000 -8.456400 8.171400 12.311100 0.000000 0.000000 -10.748400 7.598700 1.061400 -1.889100 0.000000 -0.000000 
39.337299 36.672001 -4.399600 -83.728897 0.320700 -1.928500 2.301300 2.264100 0.255000 2.215300 0.080600 0.060900 2.914200 1.161100 0.122000 -1.426300 0.135900 0.016400 -9.726600 -4.597200 -2.095800 -9.750200 5.643300 1.007100 5.093100 -2.818200 1.118900 6.896100 -55.887901 9.518300 -0.000000 0.000100 84.029999 23.652700 -4.555300 -14.567500 0.000000 -0.000000 -0.000000 0.000000 -0.000000 -0.000000 1.055500 8.956000 -1.984500 6.795800 57.499802 -1.296100 -0.000100 -0.000100 -93.709099 4.426000 -2.877100 14.341300 -0.000000 0.000000 -0.000000 0.000000 0.000000 0.000000 -12.815200 9.122500 -15.536500 19.098200 0.000000 0.000000 -6.968800 -7.188200 -1.117600 -1.639500 0.000000 -0.000000 -8.683600 -8.365900 8.377000 12.231600 0.000000 0.000000 -10.690000 7.520200 1.098200 -1.906500 0.000000 -0.000000 
39.380501 36.678799 -4.425000 -83.617897 0.283100 -2.157900 2.303700 2.339500 0.247600 2.210000 0.117400 0.066500 2.936600 1.124100 0.160500 -1.414300 0.115400 0.041000 -9.596400 -4.608600 -2.061600 -9.730700 5.645900 1.177600 5.046400 -2.730200 1.187900 7.117200 -55.957901 9.762300 -0.000000 0.000100 83.990601 23.766300 -4.644700 -14.446500 -0.000000 0.000000 -0.000000 -0.000000 -0.000000 0.000000 1.105000 8.962800 -1.985500 7.332500 57.318199 -1.774800 -0.000100 -0.000100 -93.652901 4.368400 -2.750000 14.351300 -0.000000 0.000000 -0.000000 -0.000000 -0.000000 0.000000 -13.019900 9.179300 -15.337500 19.079300 0.000000 0.000000 -6.799900 -7.295500 -1.049000 -1.835400 0.000000 -0.000000 -8.744000 -8.284800 8.596800 12.142700 0.000000 0.000000 -10.632800 7.452100 1.130100 -1.921400 0.000000 -0.000000 
39.420200 36.685101 -4.447700 -83.523598 0.244700 -2.382200 2.306000 2.410400 0.232800 2.200600 0.147500 0.071500 2.968300 1.092300 0.203400 -1.403500 0.098100 0.066200 -9.452100 -4.614500 -2.023600 -9.693900 5.645300 1.350800 5.006100 -2.641400 1.267400 7.318200 -56.042301 9.983900 -0.000000 0.000100 83.948898 23.911800 -4.763200 -14.311600 0.000000 0.000000 0.000000 0.000000 -0.000000 0.000000 1.173300 8.965100 -1.976100 7.857900 57.128700 -2.267300 -0.000100 -0.000100 -93.583504 4.335800 -2.622700 14.357500 -0.000000 0.000000 -0.000000 -0.000000 -0.000000 0.000000 -13.196400 9.229200 -15.132200 19.061800 0.000000 0.000000 -6.653800 -7.401700 -0.996200 -2.028800 0.000000 -0.000000 -8.783200 -8.207500 8.806700 12.051300 0.000000 0.000000 -10.578900 7.391100 1.166000 -1.933700 0.000000 -0.000000 
39.454800 36.690701 -4.467800 -83.450203 0.207400 -2.611300 2.310900 2.484800 0.225000 2.194700 0.162800 0.075900 3.004500 1.067700 0.250000 -1.396700 0.083900 0.090100 -9.292100 -4.620800 -1.981200 -9.643200 5.646900 1.518500 4.972500 -2.555800 1.355200 7.502200 -56.137798 10.186000 -0.000000 0.000100 83.905403 24.085699 -4.907300 -14.168400 0.000000 -0.000000 -0.000000 -0.000000 0.000000 -0.000000 1.252400 8.954900 -1.963100 8.363300 56.944698 -2.750300 -0.000100 -0.000100 -93.502998 4.328400 -2.495400 14.356600 -0.000000 -0.000000 0.000000 -0.000000 0.000000 0.000000 -13.343100 9.264400 -14.901800 19.047199 0.000000 0.000000 -6.534100 -7.503600 -0.970000 -2.217400 0.000000 -0.000000 -8.793700 -8.140800 9.027500 11.956800 0.000000 0.000000 -10.527300 7.341600 1.194900 -1.943700 0.000000 -0.000000 
39.483200 36.695702 -4.485800 -83.394798 0.174600 -2.822000 2.319200 2.557400 0.215600 2.193300 0.170700 0.079800 3.043600 1.048000 0.291400 -1.393500 0.071700 0.110800 -9.118200 -4.636500 -1.942100 -9.583100 5.657000 1.673200 4.943600 -2.481300 1.446000 7.673100 -56.238899 10.372300 -0.000000 0.000100 83.861504 24.284401 -5.077000 -14.020700 -0.000000 0.000000 0.000000 0.000000 -0.000000 0.000000 1.341600 8.931500 -1.946000 8.883200 56.748798 -3.255500 -0.000100 -0.000100 -93.410896 4.329000 -2.413000 14.351800 -0.000000 -0.000000 0.000000 -0.000000 -0.000000 -0.000000 -13.455500 9.284900 -14.668600 19.034000 0.000000 0.000000 -6.444300 -7.600100 -0.973500 -2.399400 0.000000 -0.000000 -8.787600 -8.087000 9.239800 11.864300 0.000000 0.000000 -10.474800 7.302800 1.211100 -1.953700 0.000000 -0.000000 
39.502300 36.700199 -4.502400 -83.348900 0.153400 -2.973800 2.329400 2.614800 0.195400 2.192200 0.198100 0.084300 3.083800 1.027400 0.307400 -1.390900 0.053600 0.125300 -8.921600 -4.676100 -1.923000 -9.503100 5.689000 1.791000 4.924500 -2.440500 1.527000 7.828000 -56.334900 10.551200 -0.000000 0.000100 83.819298 24.506500 -5.271700 -13.879800 0.000000 -0.000000 0.000000 -0.000000 0.000000 -0.000000 1.440900 8.882600 -1.935300 9.428600 56.535999 -3.790900 -0.000100 -0.000100 -93.307701 4.335700 -2.413900 14.347700 0.000000 -0.000000 0.000000 0.000000 0.000000 0.000000 -13.531400 9.284600 -14.464600 19.022200 0.000000 0.000000 -6.393500 -7.685900 -1.025300 -2.571900 0.000000 -0.000000 -8.788500 -8.055200 9.416500 11.782900 0.000000 0.000000 -10.414100 7.278500 1.197900 -1.966400 0.000000 -0.000000 
39.516998 36.703899 -4.517900 -83.313400 0.132600 -3.101400 2.342600 2.664800 0.164900 2.192200 0.217000 0.087900 3.122000 1.016900 0.325700 -1.389600 0.040400 0.137100 -8.701600 -4.721500 -1.914000 -9.406700 5.739100 1.867500 4.920100 -2.424000 1.599600 7.971100 -56.417999 10.728900 -0.000000 0.000100 83.793198 24.708300 -5.489400 -13.828000 0.000000 0.000000 -0.000000 0.000000 0.000000 -0.000000 1.546200 8.826600 -1.926400 9.984700 56.310299 -4.340800 -0.000100 -0.000100 -93.194298 4.351900 -2.472300 14.346000 -0.000000 0.000000 -0.000000 -0.000000 -0.000000 -0.000000 -13.582800 9.279300 -14.276100 19.018700 0.000000 0.000000 -6.374300 -7.765900 -1.103800 -2.732600 0.000000 -0.000000 -8.785900 -8.027700 9.566900 11.707900 0.000000 0.000000 -10.353500 7.258200 1.184300 -1.981000 0.000000 -0.000000 
39.527599 36.706699 -4.532700 -83.287003 0.109900 -3.208300 2.359900 2.703000 0.130200 2.194300 0.232800 0.091000 3.154400 1.015400 0.347800 -1.390100 0.031900 0.148100 -8.476700 -4.765800 -1.908900 -9.310200 5.790200 1.931100 4.927600 -2.426500 1.661600 8.104300 -56.489201 10.901700 -0.000000 0.000100 83.774101 24.917200 -5.705900 -13.825800 -0.000000 0.000000 0.000000 0.000000 -0.000000 0.000000 1.656500 8.765400 -1.927100 10.530900 56.076199 -4.883700 -0.000100 -0.000100 -93.072701 4.373600 -2.545700 14.348900 -0.000000 0.000000 -0.000000 -0.000000 -0.000000 0.000000 -13.613800 9.272900 -14.100400 19.026800 0.000000 0.000000 -6.387900 -7.840800 -1.205400 -2.879900 0.000000 -0.000000 -8.781900 -8.001700 9.694500 11.641400 0.000000 0.000000 -10.294400 7.241100 1.170900 -1.997600 0.000000 -0.000000 
39.535198 36.708500 -4.547300 -83.267303 0.082800 -3.286400 2.381300 2.728700 0.096200 2.199400 0.243400 0.093200 3.177600 1.024600 0.365300 -1.393000 0.028600 0.155400 -8.266200 -4.802500 -1.893900 -9.227300 5.826000 2.007400 4.944300 -2.443800 1.719400 8.222800 -56.548199 11.058300 -0.000000 0.000100 83.751503 25.171200 -5.895200 -13.815200 0.000000 0.000000 -0.000000 0.000000 -0.000000 0.000000 1.767100 8.697100 -1.938300 11.043000 55.853401 -5.396000 -0.000100 -0.000100 -92.940598 4.406900 -2.603400 14.354500 0.000000 0.000000 0.000000 0.000000 0.000000 -0.000000 -13.626300 9.273100 -13.945900 19.052999 0.000000 0.000000 -6.436200 -7.912800 -1.320400 -3.044800 0.000000 -0.000000 -8.784400 -7.972400 9.790000 11.588100 0.000000 0.000000 -10.238200 7.225200 1.158900 -2.015800 0.000000 -0.000000 
39.541000 36.709099 -4.561600 -83.253304 0.046800 -3.332500 2.406400 2.743800 0.066800 2.206700 0.247400 0.093800 3.191600 1.039900 0.375700 -1.397600 0.031700 0.157400 -8.065900 -4.819600 -1.865200 -9.153400 5.848700 2.079300 4.967000 -2.466400 1.773600 8.334100 -56.596802 11.194600 -0.000000 0.000100 83.737503 25.435101 -6.065500 -13.846600 0.000000 0.000000 0.000000 0.000000 0.000000 -0.000000 1.874000 8.628300 -1.965000 11.488700 55.655800 -5.843000 -0.000100 -0.000100 -92.799500 4.461700 -2.596400 14.362000 0.000000 -0.000000 -0.000000 -0.000000 0.000000 0.000000 -13.620700 9.289800 -13.819200 19.104700 0.000000 0.000000 -6.522300 -7.986200 -1.448100 -3.243900 0.000000 -0.000000 -8.794300 -7.931200 9.841300 11.545900 0.000000 0.000000 -10.185300 7.207300 1.157900 -2.035900 0.000000 -0.000000 
